<?xml version="1.0" encoding="UTF-8" standalone="no"?>
<!-- Created with Inkscape (http://www.inkscape.org/) -->

<svg
   version="1.1"
   id="svg1479"
   xml:space="preserve"
   width="682.66669"
   height="682.66669"
   viewBox="0 0 682.66669 682.66669"
   xmlns="http://www.w3.org/2000/svg"
   xmlns:svg="http://www.w3.org/2000/svg"><defs
     id="defs1483"><clipPath
       clipPathUnits="userSpaceOnUse"
       id="clipPath1493"><path
         d="M 0,512 H 512 V 0 H 0 Z"
         id="path1491" /></clipPath><clipPath
       clipPathUnits="userSpaceOnUse"
       id="clipPath1513"><path
         d="M 0,512 H 512 V 0 H 0 Z"
         id="path1511" /></clipPath></defs><g
     id="g1485"
     transform="matrix(1.3333333,0,0,-1.3333333,0,682.66667)"><g
       id="g1487"><g
         id="g1489"
         clip-path="url(#clipPath1493)"><g
           id="g1495"
           transform="translate(386.4111,-178.772)"><path
             d="m 0,0 v 16.894 c 0,179.17 -260.885,179.17 -260.885,0 V 0.142"
             style="fill:none;stroke:#000000;stroke-width:15;stroke-linecap:round;stroke-linejoin:round;stroke-miterlimit:10;stroke-dasharray:none;stroke-opacity:1"
             id="path1497" /></g></g></g><g
       id="g1499"
       transform="translate(80.7813,125.2798)"><path
         d="M 0,0 H 237.828"
         style="fill:none;stroke:#000000;stroke-width:15;stroke-linecap:round;stroke-linejoin:round;stroke-miterlimit:10;stroke-dasharray:none;stroke-opacity:1"
         id="path1501" /></g><g
       id="g1503"
       transform="translate(80.7813,178.6279)"><path
         d="M 0,0 H 251.469"
         style="fill:none;stroke:#000000;stroke-width:15;stroke-linecap:round;stroke-linejoin:round;stroke-miterlimit:10;stroke-dasharray:none;stroke-opacity:1"
         id="path1505" /></g><g
       id="g1507"><g
         id="g1509"
         clip-path="url(#clipPath1513)"><g
           id="g1515"
           transform="translate(103.6396,362.2285)"><path
             d="m 0,0 h 16.846 c 7.657,0 13.953,-6.264 13.953,-13.946 v -2.523 c 0,-7.654 -6.296,-13.947 -13.953,-13.947 H -2.893 V -2.891 C -2.893,-1.304 -1.588,0 0,0 Z"
             style="fill:none;stroke:#000000;stroke-width:15;stroke-linecap:round;stroke-linejoin:round;stroke-miterlimit:10;stroke-dasharray:none;stroke-opacity:1"
             id="path1517" /></g><g
           id="g1519"
           transform="translate(100.7466,331.813)"><path
             d="m 0,0 h 27.424 c 7.658,0 13.953,-6.265 13.953,-13.947 v -2.522 c 0,-7.682 -6.295,-13.947 -13.953,-13.947 H 2.893 C 1.305,-30.416 0,-29.112 0,-27.525 Z"
             style="fill:none;stroke:#000000;stroke-width:15;stroke-linecap:round;stroke-linejoin:round;stroke-miterlimit:10;stroke-dasharray:none;stroke-opacity:1"
             id="path1521" /></g><g
           id="g1523"
           transform="translate(254.9976,362.2285)"><path
             d="m 0,0 h 3.431 c 10.437,0 18.973,-8.532 18.973,-18.964 v -22.904 c 0,-10.431 -8.536,-18.964 -18.973,-18.964 H 0 c -10.437,0 -18.973,8.533 -18.973,18.964 v 22.904 C -18.973,-8.532 -10.437,0 0,0 Z"
             style="fill:none;stroke:#000000;stroke-width:15;stroke-linecap:round;stroke-linejoin:round;stroke-miterlimit:10;stroke-dasharray:none;stroke-opacity:1"
             id="path1525" /></g><g
           id="g1527"
           transform="translate(173.4902,362.2285)"><path
             d="M 0,0 V -60.832 H 36.301"
             style="fill:none;stroke:#000000;stroke-width:15;stroke-linecap:round;stroke-linejoin:round;stroke-miterlimit:10;stroke-dasharray:none;stroke-opacity:1"
             id="path1529" /></g><g
           id="g1531"
           transform="translate(131.9712,231.9766)"><path
             d="M 0,0 H 225.661"
             style="fill:none;stroke:#000000;stroke-width:15;stroke-linecap:round;stroke-linejoin:round;stroke-miterlimit:10;stroke-dasharray:none;stroke-opacity:1"
             id="path1533" /></g><g
           id="g1535"
           transform="translate(332.2505,463.8794)"><path
             d="M 0,0 V 0.085"
             style="fill:none;stroke:#000000;stroke-width:15;stroke-linecap:round;stroke-linejoin:round;stroke-miterlimit:10;stroke-dasharray:none;stroke-opacity:1"
             id="path1537" /></g><g
           id="g1539"
           transform="translate(293.709,463.9644)"><path
             d="M 0,0 V 0.113"
             style="fill:none;stroke:#000000;stroke-width:15;stroke-linecap:round;stroke-linejoin:round;stroke-miterlimit:10;stroke-dasharray:none;stroke-opacity:1"
             id="path1541" /></g><g
           id="g1543"
           transform="translate(370.7915,463.6528)"><path
             d="M 0,0 V 0.113"
             style="fill:none;stroke:#000000;stroke-width:15;stroke-linecap:round;stroke-linejoin:round;stroke-miterlimit:10;stroke-dasharray:none;stroke-opacity:1"
             id="path1545" /></g><g
           id="g1547"
           transform="translate(83.6738,463.8794)"><path
             d="M 0,0 H 163.95"
             style="fill:none;stroke:#000000;stroke-width:15;stroke-linecap:round;stroke-linejoin:round;stroke-miterlimit:10;stroke-dasharray:none;stroke-opacity:1"
             id="path1549" /></g><g
           id="g1551"
           transform="translate(26.5,426.8306)"><path
             d="M 0,0 H 399.027"
             style="fill:none;stroke:#000000;stroke-width:15;stroke-linecap:round;stroke-linejoin:round;stroke-miterlimit:10;stroke-dasharray:none;stroke-opacity:1"
             id="path1553" /></g><g
           id="g1555"
           transform="translate(391.9199,304.0615)"><path
             d="m 0,0 31.395,65.991 c 4.934,10.403 18.405,14.428 29.948,8.957 l 9.217,-4.393 9.217,-4.394 C 91.319,60.69 96.68,47.708 91.745,37.304 l -102.862,-216.227 -60.152,-55.815 c -2.666,-2.097 -5.445,-0.765 -5.502,2.608 l 5.304,81.865 56.748,119.31"
             style="fill:none;stroke:#000000;stroke-width:15;stroke-linecap:round;stroke-linejoin:round;stroke-miterlimit:10;stroke-dasharray:none;stroke-opacity:1"
             id="path1557" /></g><g
           id="g1559"
           transform="translate(26.5,261.2583)"><path
             d="m 0,0 v 232.243 c 0,6.067 4.935,10.999 11.004,10.999 h 377.019 c 6.069,0 11.004,-4.932 11.004,-10.999 V 112.366 m 0,-154.461 V -242.76 c 0,-6.038 -4.935,-10.998 -11.004,-10.998 H 11.004 C 4.935,-253.758 0,-248.798 0,-242.76 v 208.12"
             style="fill:none;stroke:#000000;stroke-width:15;stroke-linecap:round;stroke-linejoin:round;stroke-miterlimit:10;stroke-dasharray:none;stroke-opacity:1"
             id="path1561" /></g><g
           id="g1563"
           transform="translate(332.3638,333.4854)"><path
             d="m 0,0 h 4.169 c 9.047,0 12.705,-5.953 12.705,-12.189 v -5.159 c 0,-10.432 -7.317,-14.74 -15.172,-14.74 h -15.769 c -9.188,0 -12.45,8.249 -12.45,12.529 v 33.42 c 0,9.185 6.126,14.882 13.67,14.882 h 24.333"
             style="fill:none;stroke:#000000;stroke-width:15;stroke-linecap:round;stroke-linejoin:round;stroke-miterlimit:10;stroke-dasharray:none;stroke-opacity:1"
             id="path1565" /></g><g
           id="g1567"
           transform="translate(380.8027,125.1382)"><path
             d="M 0,0 -60.35,28.658"
             style="fill:none;stroke:#000000;stroke-width:15;stroke-linecap:round;stroke-linejoin:round;stroke-miterlimit:10;stroke-dasharray:none;stroke-opacity:1"
             id="path1569" /></g><g
           id="g1571"
           transform="translate(409.7017,341.4224)"><path
             d="M 0,0 60.351,-28.687"
             style="fill:none;stroke:#000000;stroke-width:15;stroke-linecap:round;stroke-linejoin:round;stroke-miterlimit:10;stroke-dasharray:none;stroke-opacity:1"
             id="path1573" /></g><g
           id="g1575"
           transform="translate(350.7129,97.2168)"><path
             d="M 0,0 -32.898,15.647"
             style="fill:none;stroke:#000000;stroke-width:15;stroke-linecap:round;stroke-linejoin:round;stroke-miterlimit:10;stroke-dasharray:none;stroke-opacity:1"
             id="path1577" /></g></g></g></g></svg>
