<svg height="512pt" viewBox="-55 0 512 512.00084" width="512pt" xmlns="http://www.w3.org/2000/svg"><path d="m286.523438 137.777344-18.554688 39.109375c2.988281.710937 6.011719 2.082031 10.875 1.578125l22.292969-2.3125-3.15625-39.5625zm0 0"/><path d="m205.148438 94.070312c6.851562 1.300782 13.636718 1.042969 20.003906-.5l10.167968-21.433593c5.175782-10.90625 14.96875-18.128907 25.933594-20.449219 2.179688-24.035156-14.207031-46.253906-38.410156-50.847656-25.742188-4.886719-50.574219 12.023437-55.460938 37.769531-4.890624 25.742187 12.019532 50.574219 37.765626 55.460937zm0 0"/><path d="m244.816406 185.195312 15.335938-32.328124-34.90625-18.992188-5.570313 11.738281-36.941406-29.367187 25.933594 12.070312 7.558593-15.929687c-3.6875-2.660157-7.996093-4.578125-12.757812-5.484375l-56.15625-10.65625c-17.390625-3.304688-34.167969 8.121094-37.46875 25.511718-12.851562 67.316407-25.78125 136.621094-27.578125 144.292969l-25.640625 109.578125-53.511719 98.519532c-6.753906 12.433593-2.152343 27.988281 10.28125 34.742187 12.394531 6.730469 27.964844 2.191406 34.742188-10.285156l55.160156-101.550781c1.09375-2.011719 1.910156-4.164063 2.433594-6.390626l22.917969-97.953124 24.1875 4.589843 26.652343 68.1875 16.925781 124.347657c1.90625 14 14.800782 23.839843 28.839844 21.925781 14.023438-1.90625 23.839844-14.820313 21.929688-28.839844l-17.339844-127.371094c-.273438-2.011719-.785156-3.980469-1.523438-5.871093l-25.785156-65.976563 12.535156-68.820313-57.027343-67.578124 56.503906 44.914062c9.996094 7.945312 24.796875 4.507812 30.269531-7.023438zm0 0"/><path d="m276.796875 62.460938c-10.734375 0-20.042969 6.113281-24.640625 15.046874-1.324219 2.105469-.148438.097657-19.578125 40.910157l34.90625 18.996093 9.269531-19.542968c.015625 0 .027344.003906.042969.003906 15.304687 0 27.707031-12.40625 27.707031-27.707031s-12.402344-27.707031-27.707031-27.707031zm0 0"/><path d="m373.5625 128.71875c-2.070312 0-4.085938.234375-6.027344.664062l-52.558594 5.449219 3.152344 39.5625 31.925782-3.308593c4.894531 7.832031 13.589843 13.046874 23.507812 13.046874 15.300781 0 27.707031-12.40625 27.707031-27.707031 0-15.304687-12.40625-27.707031-27.707031-27.707031zm0 0"/></svg>